# xmcd
#
# Track frame offsets:
#	150
#	21673
#	35516
#	53957
#	72805
#	89733
#	109378
#	124746
#	140955
#	156091
#	175886
#	191928
#	208729
#	227040
#	240333
#	256275
#	273153
#	291851
#
# Disc length: 4103 seconds
#
# Revision: 1
# Processed by: cddbd v1.4PL0 Copyright (c) Steve Scherf et al.
# Submitted via: EasyCDDAExtractor 5.0.6
#
DISCID=1a100512
DTITLE=梁咏琪 - 盗版
DYEAR=2002
DGENRE=Pop
TTITLE0=湖水
TTITLE1=透明
TTITLE2=泪光
TTITLE3=C'est La Vie
TTITLE4=I Wish I Was
TTITLE5=该怎么爱你
TTITLE6=神说
TTITLE7=凹凸
TTITLE8=对了吗
TTITLE9=嫌弃
TTITLE10=G For Girl
TTITLE11=继续爱
TTITLE12=贴心
TTITLE13=荷花
TTITLE14=春逝
TTITLE15=验光
TTITLE16=烟花汇演
TTITLE17=喜剧收场
EXTD=
EXTT0=
EXTT1=
EXTT2=
EXTT3=
EXTT4=
EXTT5=
EXTT6=
EXTT7=
EXTT8=
EXTT9=
EXTT10=
EXTT11=
EXTT12=
EXTT13=
EXTT14=
EXTT15=
EXTT16=
EXTT17=
PLAYORDER=
